<?xml version="1.0" encoding="utf-8"?>
<!-- Svg Vector Icons : http://www.onlinewebfonts.com/icon -->
<!DOCTYPE svg PUBLIC "-//W3C//DTD SVG 1.1//EN" "http://www.w3.org/Graphics/SVG/1.1/DTD/svg11.dtd">
<svg version="1.1" xmlns="http://www.w3.org/2000/svg" xmlns:xlink="http://www.w3.org/1999/xlink" x="0px" y="0px" viewBox="0 0 1000 1000" enable-background="new 0 0 1000 1000" xml:space="preserve">
<metadata> Svg Vector Icons : http://www.onlinewebfonts.com/icon </metadata>
<g><path d="M811.9,543.9c38.6,32.8,43.3,90.7,10.5,129.3c-32.8,38.6-90.7,43.3-129.3,10.5l-101.4-86.1v300.6c0,50.7-41.1,91.7-91.7,91.7s-91.7-41.1-91.7-91.7V597.6l-101.4,86.1c-17.2,14.7-38.4,21.8-59.4,21.8c-26,0-51.8-11-70-32.4c-32.8-38.6-28.1-96.5,10.5-129.3l252.5-214.5c34.3-29.1,84.5-29.1,118.8,0L811.9,543.9z M247.5,408c21,0,42.1-7.2,59.4-21.8L500,222.1l193.1,164c38.7,32.8,96.5,28.1,129.3-10.5c32.8-38.6,28.1-96.5-10.5-129.3L559.4,31.8c-34.3-29.1-84.5-29.1-118.8,0L188.1,246.3c-38.6,32.8-43.3,90.7-10.5,129.3C195.7,397,221.5,408,247.5,408z"/></g>
</svg>